<?xml version="1.0" standalone="no"?>
<!DOCTYPE svg PUBLIC "-//W3C//DTD SVG 20010904//EN"
 "http://www.w3.org/TR/2001/REC-SVG-20010904/DTD/svg10.dtd">
<svg version="1.0" xmlns="http://www.w3.org/2000/svg"
 width="1150.000000pt" height="1150.000000pt" viewBox="0 0 1150.000000 1150.000000"
 preserveAspectRatio="xMidYMid meet">
<metadata>
Created by potrace 1.11, written by Peter Selinger 2001-2013
</metadata>
<g transform="translate(0.000000,1150.000000) scale(0.100000,-0.100000)"
fill="#000000" stroke="none">
<path d="M5975 11488 c-350 -33 -720 -149 -1040 -326 -112 -62 -325 -207 -400
-274 -172 -152 -311 -295 -395 -408 -14 -18 -34 -45 -46 -59 -60 -74 -177
-266 -247 -406 -77 -155 -181 -442 -201 -555 -2 -14 -11 -56 -20 -95 -53 -242
-68 -668 -31 -875 3 -14 7 -43 10 -65 52 -379 244 -843 476 -1150 49 -64 259
-357 762 -1058 106 -148 199 -278 207 -290 8 -12 160 -224 337 -472 177 -247
327 -457 333 -465 5 -8 105 -148 222 -310 116 -162 227 -317 246 -345 19 -27
36 -51 37 -53 2 -2 40 50 110 148 63 89 191 266 198 275 9 11 201 276 245 340
16 22 95 132 177 245 161 223 193 267 230 320 30 44 491 681 502 695 5 6 136
188 293 405 156 217 317 439 357 492 201 266 336 522 432 818 41 128 82 297
97 410 3 25 8 54 10 64 10 55 19 209 18 346 0 139 -10 336 -19 350 -1 3 -6 28
-9 55 -4 28 -9 61 -11 75 -3 14 -7 34 -9 45 -26 133 -88 340 -143 475 -375
913 -1209 1541 -2188 1645 -130 14 -412 16 -540 3z"/>
<path d="M8950 7203 c-52 -71 -180 -245 -284 -388 -105 -143 -196 -266 -203
-273 -7 -7 -13 -16 -13 -20 0 -4 -10 -19 -23 -34 -12 -14 -29 -36 -37 -48 -29
-41 -420 -573 -438 -595 -5 -6 -17 -24 -28 -40 -10 -17 -23 -35 -29 -41 -23
-26 -365 -492 -423 -577 -135 -198 -255 -486 -286 -687 -3 -19 -8 -45 -10 -58
-20 -98 -27 -355 -13 -502 5 -46 10 -87 12 -90 2 -3 6 -21 9 -40 25 -152 77
-311 153 -470 244 -508 705 -879 1254 -1008 76 -18 113 -25 219 -38 65 -9 315
-11 375 -4 150 19 171 21 187 26 17 5 43 11 90 19 105 19 383 135 513 212 351
211 640 555 780 928 35 93 79 244 89 305 45 263 44 528 -5 755 -58 274 -171
514 -358 765 -11 14 -57 79 -102 145 -46 66 -86 122 -89 125 -3 3 -23 32 -45
65 -22 33 -44 65 -50 71 -5 6 -37 51 -70 98 -33 48 -94 135 -135 194 -42 59
-96 136 -121 172 -25 36 -147 209 -271 385 -123 176 -281 401 -351 500 -69 99
-129 185 -134 190 -4 6 -19 27 -33 47 -14 21 -28 38 -31 38 -3 0 -47 -57 -99
-127z"/>
<path d="M2329 7196 c-2 -2 -29 -7 -59 -10 -336 -39 -693 -193 -960 -415 -309
-257 -518 -596 -625 -1011 -1 -3 -5 -25 -9 -50 -11 -61 -15 -81 -21 -109 -7
-37 -18 -200 -18 -271 2 -476 205 -972 534 -1299 116 -115 326 -280 357 -281
6 0 12 -3 12 -7 0 -5 10 -13 23 -19 12 -6 54 -27 92 -46 169 -85 358 -150 505
-173 25 -4 54 -9 65 -11 170 -34 483 -22 690 26 28 6 57 13 65 15 8 2 65 19
125 38 61 19 153 47 205 61 52 15 124 36 160 47 36 10 119 35 185 53 189 54
1049 304 1160 337 55 16 129 38 165 49 36 10 92 26 125 36 33 10 62 18 65 18
3 1 80 23 172 50 l167 49 -67 96 c-36 53 -94 137 -128 186 -35 50 -67 95 -73
102 -6 7 -11 16 -11 22 0 5 -4 11 -8 13 -5 2 -44 55 -88 119 -43 63 -132 191
-197 285 -65 93 -226 324 -358 514 -131 190 -245 352 -252 361 -6 8 -16 23
-22 32 -5 9 -65 96 -133 194 -67 98 -128 187 -135 197 -6 11 -46 62 -89 115
-131 165 -275 292 -474 418 -122 79 -409 198 -521 218 -18 3 -45 10 -60 16
-15 6 -29 10 -31 9 -3 -3 -87 10 -115 17 -26 6 -412 15 -418 9z"/>
<path d="M5377 3735 c-1 -2 -36 -5 -77 -9 -128 -11 -296 -46 -410 -86 -30 -10
-228 -69 -440 -130 -212 -61 -405 -117 -430 -124 -25 -8 -124 -37 -220 -65
-96 -27 -337 -97 -535 -155 -198 -58 -454 -132 -569 -165 -115 -34 -211 -63
-213 -65 -3 -2 51 -85 120 -183 142 -203 375 -538 439 -631 24 -34 72 -104
108 -155 65 -93 229 -329 425 -612 58 -82 109 -157 115 -165 60 -85 154 -222
204 -295 33 -49 64 -94 68 -100 5 -5 35 -45 68 -87 223 -288 567 -519 930
-623 106 -30 141 -38 280 -62 57 -9 408 -10 475 -1 28 4 75 12 105 17 30 6 66
13 79 16 60 11 213 61 297 96 141 59 242 116 414 236 97 67 244 213 346 343
95 120 224 343 249 430 1 3 9 22 18 43 30 70 89 289 101 377 17 122 21 176 20
305 -1 124 -7 216 -20 280 -3 11 -7 36 -10 55 -31 195 -146 482 -268 668 -261
400 -673 690 -1131 797 -70 17 -174 35 -230 41 -65 6 -302 13 -308 9z"/>
</g>
</svg>
